M48
; DRILL file {KiCad 7.0.10} date Thu Jan 22 15:53:13 2026
; FORMAT={-:-/ absolute / inch / decimal}
; #@! TF.CreationDate,2026-01-22T15:53:13+01:00
; #@! TF.GenerationSoftware,Kicad,Pcbnew,7.0.10
; #@! TF.FileFunction,Plated,1,2,PTH
FMAT,2
INCH
; #@! TA.AperFunction,Plated,PTH,ComponentDrill
T1C0.0197
; #@! TA.AperFunction,Plated,PTH,ComponentDrill
T2C0.0276
; #@! TA.AperFunction,Plated,PTH,ComponentDrill
T3C0.0295
; #@! TA.AperFunction,Plated,PTH,ComponentDrill
T4C0.0315
; #@! TA.AperFunction,Plated,PTH,ComponentDrill
T5C0.0354
; #@! TA.AperFunction,Plated,PTH,ComponentDrill
T6C0.0362
; #@! TA.AperFunction,Plated,PTH,ComponentDrill
T7C0.0394
; #@! TA.AperFunction,Plated,PTH,ComponentDrill
T8C0.0398
; #@! TA.AperFunction,Plated,PTH,ComponentDrill
T9C0.0400
; #@! TA.AperFunction,Plated,PTH,ComponentDrill
T10C0.0433
; #@! TA.AperFunction,Plated,PTH,ComponentDrill
T11C0.0512
; #@! TA.AperFunction,Plated,PTH,ComponentDrill
T12C0.0591
; #@! TA.AperFunction,Plated,PTH,ComponentDrill
T13C0.0669
; #@! TA.AperFunction,Plated,PTH,ComponentDrill
T14C0.0906
%
G90
G05
T1
X3.04Y-0.18
X4.2Y-0.82
X4.2Y-1.58
X4.3Y-0.27
T2
X1.26Y-1.21
X1.3584Y-1.21
X1.5308Y-1.21
X1.6292Y-1.21
T3
X3.955Y-0.9542
X3.955Y-1.7142
X4.005Y-0.9542
X4.005Y-1.7142
X4.055Y-0.9542
X4.055Y-1.7142
T4
X0.11Y-1.17
X0.11Y-1.36
X0.11Y-1.55
X0.3069Y-1.17
X0.4415Y-1.17
X0.51Y-1.36
X0.51Y-1.55
X0.6383Y-1.17
X0.65Y-1.36
X0.65Y-1.5494
X0.83Y-0.52
X0.83Y-0.62
X0.83Y-0.72
X0.83Y-0.82
X0.83Y-0.92
X0.83Y-1.02
X0.83Y-1.12
X1.05Y-1.36
X1.05Y-1.5494
X1.13Y-0.52
X1.13Y-0.62
X1.13Y-0.72
X1.13Y-0.82
X1.13Y-0.92
X1.13Y-1.02
X1.13Y-1.12
X1.29Y-1.65
X1.29Y-1.79
X1.3516Y-0.71
X1.3535Y-1.39
X1.38Y-0.13
X1.38Y-0.53
X1.4016Y-0.98
X1.4803Y-0.98
X1.5457Y-1.39
X1.5484Y-0.71
X1.59Y-1.65
X1.59Y-1.79
X1.71Y-2.2
X1.76Y-0.67
X1.76Y-0.77
X1.76Y-0.87
X1.76Y-0.97
X1.76Y-1.07
X1.76Y-1.17
X1.76Y-1.27
X1.76Y-1.37
X1.76Y-1.47
X1.76Y-1.57
X1.76Y-1.67
X1.76Y-1.77
X1.76Y-1.87
X1.76Y-1.97
X2.06Y-0.67
X2.06Y-0.77
X2.06Y-0.87
X2.06Y-0.97
X2.06Y-1.07
X2.06Y-1.17
X2.06Y-1.27
X2.06Y-1.37
X2.06Y-1.47
X2.06Y-1.57
X2.06Y-1.67
X2.06Y-1.77
X2.06Y-1.87
X2.06Y-1.97
X2.11Y-2.2
X2.25Y-0.67
X2.25Y-0.8669
X2.25Y-1.17
X2.25Y-1.3669
X2.25Y-1.67
X2.25Y-1.8669
X2.41Y-0.67
X2.41Y-0.77
X2.41Y-0.87
X2.41Y-0.97
X2.41Y-1.17
X2.41Y-1.27
X2.41Y-1.37
X2.41Y-1.47
X2.41Y-1.67
X2.41Y-1.77
X2.41Y-1.87
X2.41Y-1.97
X2.65Y-0.09
X2.65Y-0.49
X2.71Y-0.67
X2.71Y-0.77
X2.71Y-0.87
X2.71Y-0.97
X2.71Y-1.17
X2.71Y-1.27
X2.71Y-1.37
X2.71Y-1.47
X2.71Y-1.67
X2.71Y-1.77
X2.71Y-1.87
X2.71Y-1.97
X2.84Y-0.09
X2.84Y-0.49
X2.86Y-0.67
X2.86Y-0.86
X2.86Y-1.05
X2.86Y-1.24
X2.86Y-1.43
X2.86Y-1.62
X2.86Y-1.81
X2.86Y-2.0
X3.04Y-0.3208
X3.04Y-0.4192
X3.26Y-0.67
X3.26Y-0.86
X3.26Y-1.05
X3.26Y-1.24
X3.26Y-1.43
X3.26Y-1.62
X3.26Y-1.81
X3.26Y-2.0
X3.33Y-0.33
X3.3816Y-2.2
X3.4Y-0.67
X3.4Y-0.86
X3.4Y-1.05
X3.4Y-1.24
X3.4Y-1.43
X3.4Y-1.62
X3.4Y-1.81
X3.4Y-2.0
X3.4087Y-0.33
X3.48Y-2.2
X3.6216Y-2.2
X3.66Y-0.33
X3.72Y-2.2
X3.7387Y-0.33
X3.8Y-0.67
X3.8Y-0.86
X3.8Y-1.05
X3.8Y-1.24
X3.8Y-1.43
X3.8Y-1.62
X3.8Y-1.81
X3.8Y-2.0
X3.955Y-0.67
X3.9558Y-2.0
X3.9584Y-1.34
X3.99Y-0.33
X4.0372Y-1.34
X4.0534Y-0.67
X4.0542Y-2.0
X4.0687Y-0.33
X4.3716Y-0.91
X4.5684Y-0.91
T5
X0.49Y-2.2
X0.59Y-2.2
X0.8053Y-2.2
X0.9053Y-2.2
X1.1Y-0.22
X1.2Y-0.22
X2.24Y-2.2
X2.34Y-2.2
T6
X0.5083Y-0.6602
X0.5083Y-0.7587
X0.587Y-0.6602
X0.587Y-0.7587
T7
X0.11Y-1.76
X0.11Y-1.9372
X0.3659Y-1.76
X0.3659Y-1.9372
X0.75Y-1.76
X0.7502Y-1.86
X0.85Y-1.76
X0.8502Y-1.86
X2.6508Y-2.2
X2.7508Y-2.2
T8
X1.54Y-2.1
T9
X1.14Y-2.1
X1.14Y-2.2
X1.24Y-2.1
X1.24Y-2.2
X1.34Y-2.1
X1.34Y-2.2
X1.44Y-2.1
X1.44Y-2.2
X1.54Y-2.2
T10
X1.803Y-0.22
X1.803Y-0.32
X1.903Y-0.22
X1.903Y-0.32
X2.003Y-0.22
X2.003Y-0.32
X2.103Y-0.22
X2.103Y-0.32
X2.203Y-0.22
X2.203Y-0.32
T11
X4.3716Y-0.57
X4.3716Y-1.26
X4.5684Y-0.57
X4.5684Y-1.26
T12
X4.47Y-1.81
T13
X4.37Y-1.71
X4.37Y-1.91
X4.57Y-1.71
X4.57Y-1.91
T14
X0.4016Y-0.4724
X0.4016Y-0.9465
M30
